# xmcd
#
# Track frame offsets: 
#        150
#        8500
#        16662
#        26575
#        35962
#        46912
#        55937
#        68987
#        81087
#        90787
#        98300
#        108025
#        118362
#        128775
#        136437
#        147500
#        156837
#        171975
#        183925
#
# Disc length: 2552 seconds
#
# Revision: 0
# Processed by: cddbd v1.5.2PL0 Copyright (c) Steve Scherf et al.
# Submitted via: ExactAudioCopy v1.1
#
DISCID=f009f613
DTITLE=Jerry Lee Lewis - The Wild - Two - CD 1
DYEAR=1977
DGENRE=Blues
TTITLE0=Save The Last Dance (+ Friends)
TTITLE1=Sixty Minute Man
TTITLE2=Let The Good Times Roll
TTITLE3=Hound Dog
TTITLE4=C.C. Rider
TTITLE5=My Blue Heaven
TTITLE6=Sweet Little Sixteen (+ Friends)
TTITLE7=Johnn B. Goode
TTITLE8=When The Saints Go Marchin In
TTITLE9=Hello Josephine (+ Friends)
TTITLE10=Shame On You
TTITLE11=When My Blue Moon Turns To Gold Again
TTITLE12=Good Golly Miss Molly
TTITLE13=Friday Night
TTITLE14=Be Bop A Lula
TTITLE15=Hong Kong Blues
TTITLE16=What'd I Say (+ Friends)
TTITLE17=It Hurt Me So
TTITLE18=Waiting For A Train
EXTD=
EXTT0=
EXTT1=
EXTT2=
EXTT3=
EXTT4=
EXTT5=
EXTT6=
EXTT7=
EXTT8=
EXTT9=
EXTT10=
EXTT11=
EXTT12=
EXTT13=
EXTT14=
EXTT15=
EXTT16=
EXTT17=
EXTT18=
PLAYORDER=
